<mxfile host="app.diagrams.net" modified="2022-12-28T02:01:16.835Z" agent="5.0 (Macintosh; Intel Mac OS X 10_15_7) AppleWebKit/537.36 (KHTML, like Gecko) Chrome/107.0.0.0 Safari/537.36" etag="Y7WfhF-h-8skQ3p8XKJM" version="20.7.4" type="github">
  <diagram id="prtHgNgQTEPvFCAcTncT" name="Page-1">
    <mxGraphModel dx="1194" dy="670" grid="1" gridSize="10" guides="1" tooltips="1" connect="1" arrows="1" fold="1" page="1" pageScale="1" pageWidth="827" pageHeight="1169" math="0" shadow="0">
      <root>
        <mxCell id="0" />
        <mxCell id="1" parent="0" />
        <mxCell id="YB1n51q5mFYvobmluy_M-5" value="订单管理" style="rounded=0;whiteSpace=wrap;html=1;" vertex="1" parent="1">
          <mxGeometry x="394" y="80" width="70" height="30" as="geometry" />
        </mxCell>
        <mxCell id="YB1n51q5mFYvobmluy_M-6" value="订单查询" style="whiteSpace=wrap;html=1;rounded=0;direction=west;" vertex="1" parent="1">
          <mxGeometry x="36" y="200" width="70" height="30" as="geometry" />
        </mxCell>
        <mxCell id="YB1n51q5mFYvobmluy_M-15" value="待支付订单" style="whiteSpace=wrap;html=1;" vertex="1" parent="1">
          <mxGeometry x="268" y="200" width="80" height="30" as="geometry" />
        </mxCell>
        <mxCell id="YB1n51q5mFYvobmluy_M-17" value="待发药订单" style="whiteSpace=wrap;html=1;" vertex="1" parent="1">
          <mxGeometry x="509" y="200" width="80" height="30" as="geometry" />
        </mxCell>
        <mxCell id="YB1n51q5mFYvobmluy_M-18" value="待院内签收订单" style="whiteSpace=wrap;html=1;" vertex="1" parent="1">
          <mxGeometry x="132" y="200" width="110" height="30" as="geometry" />
        </mxCell>
        <mxCell id="YB1n51q5mFYvobmluy_M-19" value="待院内发药订单" style="whiteSpace=wrap;html=1;" vertex="1" parent="1">
          <mxGeometry x="374" y="200" width="110" height="30" as="geometry" />
        </mxCell>
        <mxCell id="YB1n51q5mFYvobmluy_M-20" value="待签收订单" style="whiteSpace=wrap;html=1;" vertex="1" parent="1">
          <mxGeometry x="711" y="200" width="80" height="30" as="geometry" />
        </mxCell>
        <mxCell id="YB1n51q5mFYvobmluy_M-21" value="订单退款" style="whiteSpace=wrap;html=1;" vertex="1" parent="1">
          <mxGeometry x="615" y="200" width="70" height="30" as="geometry" />
        </mxCell>
      </root>
    </mxGraphModel>
  </diagram>
</mxfile>
